<?xml version="1.0" encoding="UTF-8"?>
<svg width="14px" height="15px" viewBox="0 0 14 15" version="1.1" xmlns="http://www.w3.org/2000/svg" xmlns:xlink="http://www.w3.org/1999/xlink">
    <!-- Generator: Sketch 62 (91390) - https://sketch.com -->
    <title>Garage Icon</title>
    <desc>Created with Sketch.</desc>
    <defs>
        <polygon id="path-1" points="0 0.193772727 13.9675455 0.193772727 13.9675455 5.68383145 0 5.68383145"></polygon>
    </defs>
    <g id="Page-1" stroke="none" stroke-width="1" fill="none" fill-rule="evenodd">
        <g id="casaRoyal" transform="translate(-477.000000, -1582.000000)">
            <g id="Section---Featured-Properties" transform="translate(241.000000, 919.000000)">
                <g id="Property-Card-1" transform="translate(1.000000, 184.000000)">
                    <g id="Garage" transform="translate(235.000000, 479.000000)">
                        <g id="Garage-Icon" transform="translate(0.000000, 0.000000)">
                            <g id="Group-3" transform="translate(0.000000, 0.124473)">
                                <mask id="mask-2" fill="white">
                                    <use xlink:href="#path-1"></use>
                                </mask>
                                <g id="Clip-2"></g>
                                <path d="M13.6089227,4.23722727 L7.77346818,0.425090909 C7.29269545,0.113909091 6.67351364,0.117090909 6.19528636,0.431772727 L0.353786364,4.24040909 C-0.00862272727,4.47936364 -0.109168182,4.96713636 0.129468182,5.32986364 C0.368422727,5.69259091 0.855877273,5.79313636 1.21924091,5.55386364 L6.98978636,1.79104545 L12.75365,5.55704545 C12.8863318,5.64263636 13.0339682,5.68304545 13.1803318,5.68304545 C13.4390136,5.68304545 13.6910136,5.55672727 13.8411955,5.32445455 C14.0776045,4.95981818 13.9732409,4.47363636 13.6089227,4.23722727" id="Fill-1" fill="#000000" mask="url(#mask-2)"></path>
                            </g>
                            <path d="M10.50105,12.1267045 C9.96427727,12.1267045 9.52900455,11.69175 9.52900455,11.1540227 C9.52900455,10.6169318 9.96427727,10.1816591 10.50105,10.1816591 C11.0381409,10.1816591 11.4737318,10.6166136 11.4737318,11.1540227 C11.4737318,11.69175 11.0381409,12.1267045 10.50105,12.1267045 L10.50105,12.1267045 Z M3.70914091,8.62606818 L3.82145909,7.45579545 C3.90323182,6.60497727 4.60927727,5.96415909 5.46423182,5.96415909 L5.63955,5.96415909 L5.63955,6.33197727 C5.63955,6.65111364 5.89314091,6.90534091 6.21195909,6.90534091 L7.75705,6.90534091 C8.07586818,6.90534091 8.33391364,6.65111364 8.33391364,6.33197727 L8.33391364,5.96447727 L8.50477727,5.96447727 C9.35973182,5.96447727 10.0657773,6.60497727 10.1472318,7.45611364 L10.2598682,8.62638636 L3.70914091,8.62606818 Z M3.46668636,12.1267045 C2.92991364,12.1267045 2.49464091,11.69175 2.49464091,11.1540227 C2.49464091,10.6169318 2.92991364,10.1816591 3.46668636,10.1816591 C4.00377727,10.1816591 4.43936818,10.6166136 4.43936818,11.1540227 C4.43936818,11.69175 4.00377727,12.1267045 3.46668636,12.1267045 L3.46668636,12.1267045 Z M12.1330045,9.10493182 C12.0849591,8.82970455 11.8456864,8.62606818 11.5666409,8.62606818 L11.2459136,8.62606818 L11.12405,7.35747727 C10.9939136,6.00075 9.86786818,4.97429545 8.50477727,4.97429545 L5.46423182,4.97429545 C4.10082273,4.97429545 2.97509545,6.00106818 2.84464091,7.35747727 L2.72309545,8.62606818 L2.40205,8.62606818 C2.12268636,8.62606818 1.88373182,8.82970455 1.83505,9.10493182 L1.35777727,11.81075 C1.29859545,12.1461136 1.39341364,12.4913409 1.61232273,12.7516136 C1.82295909,13.0023409 2.13318636,13.1518864 2.45773182,13.1630227 L2.45773182,13.6122955 C2.45773182,14.2483409 2.96745909,14.7606136 3.60414091,14.7606136 L3.96623182,14.7606136 C4.60227727,14.7606136 5.11964091,14.2483409 5.11964091,13.6122955 L5.11964091,13.1700227 L8.85255,13.1700227 L8.85255,13.6113409 C8.85255,14.2477045 9.36577727,14.7606136 10.0018227,14.7606136 L10.3642318,14.7606136 C11.0002773,14.7606136 11.5141409,14.2477045 11.5141409,13.6113409 L11.5141409,13.1630227 C11.8386864,13.1518864 12.1470045,13.0036136 12.3570045,12.7532045 C12.5759136,12.4919773 12.6694591,12.1486591 12.6109136,11.8129773 L12.1330045,9.10493182 Z" id="Fill-4" fill="#000000"></path>
                        </g>
                    </g>
                </g>
            </g>
        </g>
    </g>
</svg>