<?xml version="1.0" encoding="UTF-8"?>
<svg width="14px" height="14px" viewBox="0 0 14 14" version="1.1" xmlns="http://www.w3.org/2000/svg" xmlns:xlink="http://www.w3.org/1999/xlink">
    <!-- Generator: Sketch 62 (91390) - https://sketch.com -->
    <title>Bathroom Icon</title>
    <desc>Created with Sketch.</desc>
    <defs>
        <polygon id="path-1" points="2.734375e-06 0.00765078125 14 0.00765078125 14 1.19059609 2.734375e-06 1.19059609"></polygon>
    </defs>
    <g id="Page-1" stroke="none" stroke-width="1" fill="none" fill-rule="evenodd">
        <g id="casaRoyal" transform="translate(-530.000000, -1584.000000)">
            <g id="Section---Featured-Properties" transform="translate(241.000000, 919.000000)">
                <g id="Property-Card-1" transform="translate(1.000000, 184.000000)">
                    <g id="Bathrooms" transform="translate(288.000000, 479.000000)">
                        <g id="Bathroom-Icon" transform="translate(0.000000, 2.000000)">
                            <path d="M13.2524273,12.4338758 L13.0320094,11.9136063 C12.561232,12.3261414 11.9904313,12.6271141 11.3611422,12.7747977 L11.7654742,13.3010281 C11.9285797,13.5132703 12.185775,13.6399539 12.4534977,13.6399539 C12.7453102,13.6399539 13.0157125,13.4947313 13.1768492,13.2514539 C13.3379859,13.0081492 13.3662594,12.7025281 13.2524273,12.4338758" id="Fill-1" fill="#000000"></path>
                            <path d="M0.967993359,11.913598 L0.747602734,12.4338676 C0.633798047,12.7025746 0.662044141,13.0081957 0.823180859,13.2514457 C0.984317578,13.4946684 1.25474727,13.6399457 1.54655977,13.6399457 C1.81425508,13.6399457 2.07142305,13.5132348 2.23461055,13.3009379 L2.63891523,12.7747621 C2.00959883,12.6271332 1.4387707,12.3261332 0.967993359,11.913598" id="Fill-3" fill="#000000"></path>
                            <path d="M5.00688398,1.46779062 L4.96206758,1.46779062 C4.85135273,0.640396094 4.14134492,5.46875e-06 3.2841457,5.46875e-06 L2.90641914,5.46875e-06 C1.97268477,5.46875e-06 1.21299336,0.759669531 1.21299336,1.69343125 L1.21299336,5.24038047 L2.03530195,5.24038047 L2.03530195,1.69340391 C2.03530195,1.21308359 2.42609883,0.822286719 2.90641914,0.822286719 L3.2841457,0.822286719 C3.6864543,0.822286719 4.02576289,1.09648984 4.1254582,1.46776328 L4.05904023,1.46776328 C3.40492305,1.46776328 2.87275898,1.99992734 2.87275898,2.65404453 L2.87275898,3.34764609 C2.87275898,3.56754453 3.04554414,3.74659141 3.26268086,3.75772031 C3.26976289,3.75807578 3.27673555,3.75878672 3.28389961,3.75878672 L5.78199727,3.75878672 C6.00905977,3.75878672 6.19313789,3.57470859 6.19313789,3.34764609 L6.19313789,2.65407188 C6.19313789,1.99995469 5.66100117,1.46779062 5.00688398,1.46779062" id="Fill-5" fill="#000000"></path>
                            <path d="M0.461587109,8.46753633 L0.461587109,8.98930977 C0.461587109,10.6797277 1.83681367,12.0549816 3.52723164,12.0549816 L10.4727902,12.0549816 C12.1631809,12.0549816 13.5384348,10.6797551 13.5384348,8.98930977 L13.5384348,8.46753633 L0.461587109,8.46753633 Z" id="Fill-7" fill="#000000"></path>
                            <g id="Group-11" transform="translate(0.000000, 6.448559)">
                                <mask id="mask-2" fill="white">
                                    <use xlink:href="#path-1"></use>
                                </mask>
                                <g id="Clip-10"></g>
                                <path d="M13.4085574,0.00765078125 L0.591448047,0.00765078125 C0.265319141,0.007678125 2.734375e-06,0.273021875 2.734375e-06,0.599150781 C2.734375e-06,0.925279687 0.265319141,1.19059609 0.591448047,1.19059609 L13.4085574,1.19059609 C13.7346863,1.19059609 14.0000027,0.925279687 14.0000027,0.599150781 C14.0000027,0.273021875 13.7346863,0.00765078125 13.4085574,0.00765078125" id="Fill-9" fill="#000000" mask="url(#mask-2)"></path>
                            </g>
                        </g>
                    </g>
                </g>
            </g>
        </g>
    </g>
</svg>