<?xml version="1.0" encoding="UTF-8"?>
<svg width="14px" height="9px" viewBox="0 0 14 9" version="1.1" xmlns="http://www.w3.org/2000/svg" xmlns:xlink="http://www.w3.org/1999/xlink">
    <!-- Generator: Sketch 62 (91390) - https://sketch.com -->
    <title>Bedroom Icon</title>
    <desc>Created with Sketch.</desc>
    <g id="Page-1" stroke="none" stroke-width="1" fill="none" fill-rule="evenodd">
        <g id="casaRoyal" transform="translate(-583.000000, -1587.000000)" fill="#000000">
            <g id="Section---Featured-Properties" transform="translate(241.000000, 919.000000)">
                <g id="Property-Card-1" transform="translate(1.000000, 184.000000)">
                    <g id="Bedrooms" transform="translate(341.000000, 479.000000)">
                        <g id="Bedroom-Icon" transform="translate(0.000000, 5.000000)">
                            <path d="M12.1399938,4.17538308 L13.5230708,4.17538308 L13.5230708,2.93076769 C13.5230708,2.67230615 13.3123015,2.46153692 13.05384,2.46153692 L5.26307077,2.46153692 C5.28771692,2.51230615 5.31079385,2.56307538 5.33387077,2.61538308 C5.49077846,2.98769077 5.57076308,3.38307538 5.57076308,3.79076769 C5.57076308,3.91998308 5.56307077,4.04922923 5.54614769,4.17538308 L12.1399938,4.17538308 Z" id="Fill-1"></path>
                            <path d="M2.55230615,1.31077231 C2.49999846,1.31077231 2.44922923,1.31231077 2.39846,1.31538769 L2.39846,4.17384923 L4.10769077,4.17384923 L5.00153692,4.17384923 C5.02155231,4.04769538 5.03076769,3.92000308 5.03076769,3.78923385 C5.03076769,3.30000308 4.88922923,2.84463385 4.64461385,2.46154154 C4.20615231,1.76923385 3.43230615,1.31077231 2.55230615,1.31077231" id="Fill-3"></path>
                            <path d="M0.461538462,8.50769231 L1.39846154,8.50769231 C1.65384615,8.50769231 1.86,8.30153846 1.86,8.04615385 L1.86,6.57384615 L12.14,6.57384615 L12.14,8.04615385 C12.14,8.30153846 12.3461538,8.50769231 12.6015385,8.50769231 L13.5384615,8.50769231 C13.7938462,8.50769231 14,8.30153846 14,8.04615385 L14,5.17538462 C14,4.91998462 13.7938462,4.71384615 13.5384615,4.71384615 L12.14,4.71384615 L1.86,4.71384615 L1.86,1.40923077 L1.86,0.461538462 C1.86,0.206153846 1.65384615,0 1.39846154,0 L0.461538462,0 C0.206153846,0 0,0.206153846 0,0.461538462 L0,2.18 L0,2.77230769 L0,4.80769231 L0,5.4 L0,8.04615385 C0,8.3 0.206153846,8.50769231 0.461538462,8.50769231" id="Fill-5"></path>
                        </g>
                    </g>
                </g>
            </g>
        </g>
    </g>
</svg>