<?xml version="1.0" encoding="UTF-8"?>
<svg width="14px" height="14px" viewBox="0 0 14 14" version="1.1" xmlns="http://www.w3.org/2000/svg" xmlns:xlink="http://www.w3.org/1999/xlink">
    <!-- Generator: Sketch 62 (91390) - https://sketch.com -->
    <title>Area Icon</title>
    <desc>Created with Sketch.</desc>
    <defs>
        <polygon id="path-1" points="0.0151592072 0 9.87887532 0 9.87887532 10.6899083 0.0151592072 10.6899083"></polygon>
    </defs>
    <g id="Page-1" stroke="none" stroke-width="1" fill="none" fill-rule="evenodd">
        <g id="casaRoyal" transform="translate(-268.000000, -1584.000000)">
            <g id="Section---Featured-Properties" transform="translate(241.000000, 919.000000)">
                <g id="Property-Card-1" transform="translate(1.000000, 184.000000)">
                    <g id="Area-Size" transform="translate(26.000000, 479.000000)">
                        <g id="Area-Icon" transform="translate(0.000000, 2.000000)">
                            <path d="M13.860502,12.4732659 L12.9105954,11.650014 C12.7250249,11.489211 12.4243445,11.489211 12.2387456,11.650014 C12.0531752,11.810743 12.0531752,12.0715545 12.2387456,12.2322835 L12.3779305,12.352935 L3.26912829,12.352935 L3.40834169,12.2322835 C3.59391213,12.0715792 3.59391213,11.8107676 3.40834169,11.650014 C3.22277125,11.489211 2.9220908,11.489211 2.7364919,11.650014 L1.78658526,12.4732659 C1.6933874,12.553914 1.64705882,12.6639112 1.64705882,12.7646843 C1.64705882,12.8676278 1.69583474,12.9776002 1.78658526,13.0561027 L2.7364919,13.8793793 C2.9220908,14.0402069 3.22271434,14.0402069 3.40834169,13.8793793 C3.59391213,13.7186503 3.59391213,13.4578141 3.40834169,13.2970851 L3.26912829,13.1764583 L12.3779305,13.1764583 L12.2387456,13.2970851 C12.0531752,13.4577894 12.0531752,13.7186257 12.2387456,13.8793793 C12.4243445,14.0402069 12.724968,14.0402069 12.9105954,13.8793793 L13.860502,13.0561027 C13.9535576,12.9756519 14,12.8656794 14,12.7646843 C14,12.6590279 13.951281,12.551793 13.860502,12.4732659" id="Fill-1" fill="#000000"></path>
                            <path d="M1.76769533,9.79672412 L1.64704649,9.93368064 L1.64704649,1.59571012 L1.76769533,1.73269465 C1.928544,1.91525669 2.1890784,1.91525669 2.34995173,1.73269465 C2.5108004,1.55010461 2.5108004,1.25435466 2.34995173,1.07173662 L1.52642232,0.136921533 C1.36559831,-0.0456405109 1.10501459,-0.0456405109 0.944165915,0.136921533 L0.120661166,1.07173662 C-0.0401875053,1.25432666 -0.0401875053,1.55007661 0.120661166,1.73269465 C0.281485174,1.91525669 0.5420689,1.91525669 0.702917571,1.73269465 L0.823541743,1.59571012 L0.823541743,9.93368064 L0.702892908,9.79669612 C0.5420689,9.61416207 0.281485174,9.61416207 0.120636503,9.79669612 C-0.0402121678,9.97928616 -0.0402121678,10.2750361 0.120636503,10.4576541 L0.944141253,11.3924692 C1.10498992,11.5750593 1.36552432,11.5750593 1.52639766,11.3924692 L2.34990241,10.4576541 C2.51075108,10.2751201 2.51075108,9.97931416 2.34992707,9.79672412 C2.18910306,9.61416207 1.92851934,9.61416207 1.76769533,9.79672412" id="Fill-3" fill="#000000"></path>
                            <g id="Group-7" transform="translate(4.117647, 0.000000)">
                                <mask id="mask-2" fill="white">
                                    <use xlink:href="#path-1"></use>
                                </mask>
                                <g id="Clip-6"></g>
                                <path d="M7.63713875,3.77289135 L9.87887532,3.77289135 L9.87887532,0.471609654 C9.87887532,0.211081018 9.67803261,-1.41238553e-05 9.43051726,-1.41238553e-05 L3.30308248,-1.41238553e-05 L3.30308248,3.77289135 L5.54481905,3.77289135 C5.7923344,3.77289135 5.99317711,3.9839865 5.99317711,4.24451513 C5.99317711,4.50504377 5.7923344,4.71613891 5.54481905,4.71613891 L3.30308248,4.71613891 L3.30308248,6.130982 C3.30308248,6.39151063 3.10223977,6.60260577 2.85472442,6.60260577 C2.60720908,6.60260577 2.40636637,6.39151063 2.40636637,6.130982 L2.40636637,-1.41238553e-05 L0.463517263,-1.41238553e-05 C0.216001918,-1.41238553e-05 0.0151592072,0.211081018 0.0151592072,0.471609654 L0.0151592072,10.2182845 C0.0151592072,10.4788131 0.216001918,10.6899083 0.463517263,10.6899083 L2.40636637,10.6899083 L2.40636637,8.33184588 C2.40636637,8.07131724 2.60720908,7.8602221 2.85472442,7.8602221 C3.10223977,7.8602221 3.30308248,8.07131724 3.30308248,8.33184588 L3.30308248,10.6899083 L9.43051726,10.6899083 C9.67803261,10.6899083 9.87887532,10.4788131 9.87887532,10.2182845 L9.87887532,4.71613891 L7.63713875,4.71613891 C7.3896234,4.71613891 7.18878069,4.50504377 7.18878069,4.24451513 C7.18878069,3.9839865 7.38959655,3.77289135 7.63713875,3.77289135" id="Fill-5" fill="#000000" mask="url(#mask-2)"></path>
                            </g>
                        </g>
                    </g>
                </g>
            </g>
        </g>
    </g>
</svg>