<?xml version="1.0" encoding="UTF-8"?>
<svg width="178px" height="41px" viewBox="0 0 178 41" version="1.1" xmlns="http://www.w3.org/2000/svg" xmlns:xlink="http://www.w3.org/1999/xlink">
    <!-- Generator: Sketch 64 (93537) - https://sketch.com -->
    <title>Logo</title>
    <desc>Created with Sketch.</desc>
    <defs>
        <polygon id="path-1" points="0 0.117431102 35.952 0.117431102 35.952 41 0 41"></polygon>
    </defs>
    <g id="Page-1" stroke="none" stroke-width="1" fill="none" fill-rule="evenodd">
        <g id="casaRoyal" transform="translate(-241.000000, -10355.000000)">
            <g id="Footer" transform="translate(0.000000, 10322.000000)">
                <g id="Footer-Header" transform="translate(0.000000, 2.000000)">
                    <g id="Logo" transform="translate(241.000000, 31.000000)">
                        <g>
                            <path d="M23.7994633,19.0441229 L18.7064665,16.1590338 C18.3324211,15.9469887 17.8712826,15.9469887 17.4970747,16.1590338 L12.4042404,19.0441229 C12.2170552,19.1501455 12.1018519,19.3460879 12.1018519,19.5579736 L12.1018519,25.406752 C12.1018519,25.7343856 12.3725554,26 12.7064665,26 L15.3454201,26 C15.6793311,26 15.9500347,25.7343856 15.9500347,25.406752 L15.9500347,21.7468213 C15.9500347,21.4190283 16.2207383,21.1534138 16.5548118,21.1534138 L19.6488919,21.1534138 C19.9829654,21.1534138 20.253669,21.4190283 20.253669,21.7468213 L20.253669,25.406752 C20.253669,25.7343856 20.5243726,26 20.8582836,26 L23.4972372,26 C23.8311483,26 24.1018519,25.7343856 24.1018519,25.406752 L24.1018519,19.5579736 C24.1018519,19.3460879 23.9866485,19.1501455 23.7994633,19.0441229" id="Fill-1" fill="#2A42E8"></path>
                            <g id="Group-5" transform="translate(0.101852, 0.000000)">
                                <mask id="mask-2" fill="white">
                                    <use xlink:href="#path-1"></use>
                                </mask>
                                <g id="Clip-4"></g>
                                <path d="M28.98888,19.1296476 L28.98888,22.906813 L28.98888,25.3708484 C28.98888,25.8000571 28.76184,26.1966594 28.39336,26.4113445 L23.91592,29.0193642 L18.55848,32.1400453 C18.18984,32.3545689 17.73592,32.3545689 17.36744,32.1400453 L12.00984,29.0193642 L12.00984,29.0041909 L7.55864,26.4113445 C7.19016,26.1966594 6.96312,25.8000571 6.96312,25.3708484 L6.96312,22.906813 L6.96312,19.1296476 L6.96312,16.6657736 C6.96312,16.236565 7.19016,15.8398012 7.55864,15.6252776 L12.32072,12.8514823 C12.6892,12.6367972 13.14312,12.6367972 13.5116,12.8514823 L17.38056,15.1048681 C17.74888,15.3195531 18.20296,15.3195531 18.57144,15.1048681 L22.44024,12.8514823 C22.80888,12.6367972 23.2628,12.6367972 23.63128,12.8514823 L28.39336,15.6252776 C28.76184,15.8398012 28.98888,16.236565 28.98888,16.6657736 L28.98888,19.1296476 Z M34.35208,9.15631693 L19.57592,0.54986811 C18.58584,-0.0267145669 17.366,-0.0267145669 16.37592,0.54986811 L1.59992,9.15631693 C0.60984,9.73306102 -8e-05,10.7988996 -8e-05,11.9522264 L-8e-05,29.165124 C-8e-05,30.3184508 0.60984,31.3842894 1.59992,31.9610335 L16.37592,40.5674823 C17.366,41.1442264 18.58584,41.1442264 19.57592,40.5674823 L34.35208,31.9610335 C35.342,31.3842894 35.95208,30.3184508 35.95208,29.165124 L35.95208,11.9522264 C35.95208,10.7988996 35.342,9.73306102 34.35208,9.15631693 L34.35208,9.15631693 Z" id="Fill-3" fill="#2A42E8" mask="url(#mask-2)"></path>
                            </g>
                        </g>
                        <text id="casaRoyal" font-family="Rubik-Light, Rubik" font-size="28" font-weight="300" fill="#FFFFFF">
                            <tspan x="47.1018519" y="30">casa</tspan>
                            <tspan x="105.901852" y="30" font-family="Rubik-Medium, Rubik" font-weight="400">Royal</tspan>
                        </text>
                    </g>
                </g>
            </g>
        </g>
    </g>
</svg>